<mxfile modified="2023-03-15T21:59:04.687Z" host="Electron" agent="5.0 (Windows NT 10.0; Win64; x64) AppleWebKit/537.36 (KHTML, like Gecko) draw.io/20.3.0 Chrome/104.0.5112.114 Electron/20.1.3 Safari/537.36" etag="qtgzNHb-gy8Ar-Msx618" compressed="false" version="20.3.0" type="device">
  <diagram name="Deployment Stakeholders" id="sLQgZ1sIVFAuEDhIooa6">
    <mxGraphModel dx="782" dy="517" grid="1" gridSize="10" guides="1" tooltips="1" connect="1" arrows="1" fold="1" page="1" pageScale="1" pageWidth="827" pageHeight="1169" math="0" shadow="0">
      <root>
        <mxCell id="ENI0PkMuO0fjYYb_z47d-0" />
        <mxCell id="ENI0PkMuO0fjYYb_z47d-1" parent="ENI0PkMuO0fjYYb_z47d-0" />
        <mxCell id="ENI0PkMuO0fjYYb_z47d-4" value="Base System Logical Module" style="rounded=1;whiteSpace=wrap;html=1;strokeWidth=1;fillColor=none;dashed=1;absoluteArcSize=1;arcSize=8;container=1;collapsible=0;recursiveResize=0;align=left;verticalAlign=top;" parent="ENI0PkMuO0fjYYb_z47d-1" vertex="1">
          <mxGeometry x="120" y="130" width="430" height="340" as="geometry" />
        </mxCell>
        <mxCell id="ENI0PkMuO0fjYYb_z47d-5" value="" style="fontStyle=1;align=center;verticalAlign=top;childLayout=stackLayout;horizontal=1;horizontalStack=0;resizeParent=1;resizeParentMax=0;resizeLast=0;marginBottom=0;strokeColor=#d6b656;strokeWidth=2;fillColor=none;" parent="ENI0PkMuO0fjYYb_z47d-4" vertex="1">
          <mxGeometry x="10" y="90" width="130" height="53" as="geometry" />
        </mxCell>
        <mxCell id="ENI0PkMuO0fjYYb_z47d-6" value="Diagnostic &lt;br&gt;Logging" style="html=1;align=left;spacingLeft=4;verticalAlign=middle;strokeColor=none;fillColor=none;fontStyle=1" parent="ENI0PkMuO0fjYYb_z47d-5" vertex="1">
          <mxGeometry width="130" height="20" as="geometry" />
        </mxCell>
        <mxCell id="ENI0PkMuO0fjYYb_z47d-7" value="" style="shape=ellipse;" parent="ENI0PkMuO0fjYYb_z47d-6" vertex="1">
          <mxGeometry x="1" width="20" height="16" relative="1" as="geometry">
            <mxPoint x="-25" y="7" as="offset" />
          </mxGeometry>
        </mxCell>
        <mxCell id="ENI0PkMuO0fjYYb_z47d-8" value="" style="line;strokeWidth=1;fillColor=none;align=left;verticalAlign=middle;spacingTop=-1;spacingLeft=3;spacingRight=3;rotatable=0;labelPosition=right;points=[];portConstraint=eastwest;" parent="ENI0PkMuO0fjYYb_z47d-5" vertex="1">
          <mxGeometry y="20" width="130" height="8" as="geometry" />
        </mxCell>
        <mxCell id="ENI0PkMuO0fjYYb_z47d-9" value="." style="html=1;align=center;spacingLeft=4;verticalAlign=top;strokeColor=none;fillColor=none;" parent="ENI0PkMuO0fjYYb_z47d-5" vertex="1">
          <mxGeometry y="28" width="130" height="25" as="geometry" />
        </mxCell>
        <mxCell id="ENI0PkMuO0fjYYb_z47d-10" value="&amp;lt;&amp;lt;actor&amp;gt;&amp;gt;&lt;br&gt;&lt;br&gt;&lt;b&gt;User&lt;/b&gt;" style="text;html=1;align=center;verticalAlign=middle;dashed=0;strokeColor=#000000;strokeWidth=2;" parent="ENI0PkMuO0fjYYb_z47d-4" vertex="1">
          <mxGeometry x="175" y="280" width="80" height="50" as="geometry" />
        </mxCell>
        <mxCell id="ENI0PkMuO0fjYYb_z47d-11" value="" style="fontStyle=1;align=center;verticalAlign=top;childLayout=stackLayout;horizontal=1;horizontalStack=0;resizeParent=1;resizeParentMax=0;resizeLast=0;marginBottom=0;strokeColor=#d6b656;strokeWidth=2;fillColor=none;" parent="ENI0PkMuO0fjYYb_z47d-4" vertex="1">
          <mxGeometry x="10" y="150" width="130" height="53" as="geometry" />
        </mxCell>
        <mxCell id="ENI0PkMuO0fjYYb_z47d-12" value="Error &lt;br&gt;Logging" style="html=1;align=left;spacingLeft=4;verticalAlign=middle;strokeColor=none;fillColor=none;fontStyle=1" parent="ENI0PkMuO0fjYYb_z47d-11" vertex="1">
          <mxGeometry width="130" height="20" as="geometry" />
        </mxCell>
        <mxCell id="ENI0PkMuO0fjYYb_z47d-13" value="" style="shape=ellipse;" parent="ENI0PkMuO0fjYYb_z47d-12" vertex="1">
          <mxGeometry x="1" width="20" height="16" relative="1" as="geometry">
            <mxPoint x="-25" y="7" as="offset" />
          </mxGeometry>
        </mxCell>
        <mxCell id="ENI0PkMuO0fjYYb_z47d-14" value="" style="line;strokeWidth=1;fillColor=none;align=left;verticalAlign=middle;spacingTop=-1;spacingLeft=3;spacingRight=3;rotatable=0;labelPosition=right;points=[];portConstraint=eastwest;" parent="ENI0PkMuO0fjYYb_z47d-11" vertex="1">
          <mxGeometry y="20" width="130" height="8" as="geometry" />
        </mxCell>
        <mxCell id="ENI0PkMuO0fjYYb_z47d-15" value="." style="html=1;align=center;spacingLeft=4;verticalAlign=top;strokeColor=none;fillColor=none;" parent="ENI0PkMuO0fjYYb_z47d-11" vertex="1">
          <mxGeometry y="28" width="130" height="25" as="geometry" />
        </mxCell>
        <mxCell id="ENI0PkMuO0fjYYb_z47d-21" value="" style="fontStyle=1;align=center;verticalAlign=top;childLayout=stackLayout;horizontal=1;horizontalStack=0;resizeParent=1;resizeParentMax=0;resizeLast=0;marginBottom=0;strokeColor=#d6b656;strokeWidth=2;fillColor=none;" parent="ENI0PkMuO0fjYYb_z47d-4" vertex="1">
          <mxGeometry x="150" y="30" width="130" height="53" as="geometry" />
        </mxCell>
        <mxCell id="ENI0PkMuO0fjYYb_z47d-22" value="System Config" style="html=1;align=left;spacingLeft=4;verticalAlign=middle;strokeColor=none;fillColor=none;fontStyle=1" parent="ENI0PkMuO0fjYYb_z47d-21" vertex="1">
          <mxGeometry width="130" height="20" as="geometry" />
        </mxCell>
        <mxCell id="ENI0PkMuO0fjYYb_z47d-23" value="" style="shape=ellipse;" parent="ENI0PkMuO0fjYYb_z47d-22" vertex="1">
          <mxGeometry x="1" width="20" height="16" relative="1" as="geometry">
            <mxPoint x="-25" y="7" as="offset" />
          </mxGeometry>
        </mxCell>
        <mxCell id="ENI0PkMuO0fjYYb_z47d-24" value="" style="line;strokeWidth=1;fillColor=none;align=left;verticalAlign=middle;spacingTop=-1;spacingLeft=3;spacingRight=3;rotatable=0;labelPosition=right;points=[];portConstraint=eastwest;" parent="ENI0PkMuO0fjYYb_z47d-21" vertex="1">
          <mxGeometry y="20" width="130" height="8" as="geometry" />
        </mxCell>
        <mxCell id="ENI0PkMuO0fjYYb_z47d-25" value="." style="html=1;align=center;spacingLeft=4;verticalAlign=top;strokeColor=none;fillColor=none;" parent="ENI0PkMuO0fjYYb_z47d-21" vertex="1">
          <mxGeometry y="28" width="130" height="25" as="geometry" />
        </mxCell>
        <mxCell id="ENI0PkMuO0fjYYb_z47d-26" value="" style="fontStyle=1;align=center;verticalAlign=top;childLayout=stackLayout;horizontal=1;horizontalStack=0;resizeParent=1;resizeParentMax=0;resizeLast=0;marginBottom=0;strokeColor=#d6b656;strokeWidth=2;fillColor=none;" parent="ENI0PkMuO0fjYYb_z47d-4" vertex="1">
          <mxGeometry x="150" y="150.5" width="130" height="53" as="geometry" />
        </mxCell>
        <mxCell id="ENI0PkMuO0fjYYb_z47d-27" value="Sys Sponsor Info" style="html=1;align=left;spacingLeft=4;verticalAlign=middle;strokeColor=none;fillColor=none;fontStyle=1" parent="ENI0PkMuO0fjYYb_z47d-26" vertex="1">
          <mxGeometry width="130" height="20" as="geometry" />
        </mxCell>
        <mxCell id="ENI0PkMuO0fjYYb_z47d-28" value="" style="shape=ellipse;" parent="ENI0PkMuO0fjYYb_z47d-27" vertex="1">
          <mxGeometry x="1" width="20" height="16" relative="1" as="geometry">
            <mxPoint x="-25" y="7" as="offset" />
          </mxGeometry>
        </mxCell>
        <mxCell id="ENI0PkMuO0fjYYb_z47d-29" value="" style="line;strokeWidth=1;fillColor=none;align=left;verticalAlign=middle;spacingTop=-1;spacingLeft=3;spacingRight=3;rotatable=0;labelPosition=right;points=[];portConstraint=eastwest;" parent="ENI0PkMuO0fjYYb_z47d-26" vertex="1">
          <mxGeometry y="20" width="130" height="8" as="geometry" />
        </mxCell>
        <mxCell id="ENI0PkMuO0fjYYb_z47d-30" value="." style="html=1;align=center;spacingLeft=4;verticalAlign=top;strokeColor=none;fillColor=none;" parent="ENI0PkMuO0fjYYb_z47d-26" vertex="1">
          <mxGeometry y="28" width="130" height="25" as="geometry" />
        </mxCell>
        <mxCell id="ENI0PkMuO0fjYYb_z47d-31" value="" style="fontStyle=1;align=center;verticalAlign=top;childLayout=stackLayout;horizontal=1;horizontalStack=0;resizeParent=1;resizeParentMax=0;resizeLast=0;marginBottom=0;strokeColor=#d6b656;strokeWidth=2;fillColor=none;" parent="ENI0PkMuO0fjYYb_z47d-4" vertex="1">
          <mxGeometry x="10" y="30" width="130" height="53" as="geometry" />
        </mxCell>
        <mxCell id="ENI0PkMuO0fjYYb_z47d-32" value="Env Configuration" style="html=1;align=left;spacingLeft=4;verticalAlign=middle;strokeColor=none;fillColor=none;fontStyle=1" parent="ENI0PkMuO0fjYYb_z47d-31" vertex="1">
          <mxGeometry width="130" height="20" as="geometry" />
        </mxCell>
        <mxCell id="ENI0PkMuO0fjYYb_z47d-33" value="" style="shape=ellipse;" parent="ENI0PkMuO0fjYYb_z47d-32" vertex="1">
          <mxGeometry x="1" width="20" height="16" relative="1" as="geometry">
            <mxPoint x="-25" y="7" as="offset" />
          </mxGeometry>
        </mxCell>
        <mxCell id="ENI0PkMuO0fjYYb_z47d-34" value="" style="line;strokeWidth=1;fillColor=none;align=left;verticalAlign=middle;spacingTop=-1;spacingLeft=3;spacingRight=3;rotatable=0;labelPosition=right;points=[];portConstraint=eastwest;" parent="ENI0PkMuO0fjYYb_z47d-31" vertex="1">
          <mxGeometry y="20" width="130" height="8" as="geometry" />
        </mxCell>
        <mxCell id="ENI0PkMuO0fjYYb_z47d-35" value="." style="html=1;align=center;spacingLeft=4;verticalAlign=top;strokeColor=none;fillColor=none;" parent="ENI0PkMuO0fjYYb_z47d-31" vertex="1">
          <mxGeometry y="28" width="130" height="25" as="geometry" />
        </mxCell>
        <mxCell id="ENI0PkMuO0fjYYb_z47d-36" value="" style="fontStyle=1;align=center;verticalAlign=top;childLayout=stackLayout;horizontal=1;horizontalStack=0;resizeParent=1;resizeParentMax=0;resizeLast=0;marginBottom=0;strokeColor=#d6b656;strokeWidth=2;fillColor=none;" parent="ENI0PkMuO0fjYYb_z47d-4" vertex="1">
          <mxGeometry x="150" y="90.5" width="130" height="53" as="geometry" />
        </mxCell>
        <mxCell id="ENI0PkMuO0fjYYb_z47d-37" value="Svc Provider Info" style="html=1;align=left;spacingLeft=4;verticalAlign=middle;strokeColor=none;fillColor=none;fontStyle=1" parent="ENI0PkMuO0fjYYb_z47d-36" vertex="1">
          <mxGeometry width="130" height="20" as="geometry" />
        </mxCell>
        <mxCell id="ENI0PkMuO0fjYYb_z47d-38" value="" style="shape=ellipse;" parent="ENI0PkMuO0fjYYb_z47d-37" vertex="1">
          <mxGeometry x="1" width="20" height="16" relative="1" as="geometry">
            <mxPoint x="-25" y="7" as="offset" />
          </mxGeometry>
        </mxCell>
        <mxCell id="ENI0PkMuO0fjYYb_z47d-39" value="" style="line;strokeWidth=1;fillColor=none;align=left;verticalAlign=middle;spacingTop=-1;spacingLeft=3;spacingRight=3;rotatable=0;labelPosition=right;points=[];portConstraint=eastwest;" parent="ENI0PkMuO0fjYYb_z47d-36" vertex="1">
          <mxGeometry y="20" width="130" height="8" as="geometry" />
        </mxCell>
        <mxCell id="ENI0PkMuO0fjYYb_z47d-40" value="." style="html=1;align=center;spacingLeft=4;verticalAlign=top;strokeColor=none;fillColor=none;" parent="ENI0PkMuO0fjYYb_z47d-36" vertex="1">
          <mxGeometry y="28" width="130" height="25" as="geometry" />
        </mxCell>
        <mxCell id="ENI0PkMuO0fjYYb_z47d-81" value="" style="fontStyle=1;align=center;verticalAlign=top;childLayout=stackLayout;horizontal=1;horizontalStack=0;resizeParent=1;resizeParentMax=0;resizeLast=0;marginBottom=0;strokeColor=#d6b656;strokeWidth=2;fillColor=none;" parent="ENI0PkMuO0fjYYb_z47d-4" vertex="1">
          <mxGeometry x="290" y="30" width="130" height="53" as="geometry" />
        </mxCell>
        <mxCell id="ENI0PkMuO0fjYYb_z47d-82" value="Country of Origin/&lt;br&gt;Embargo Mgmt" style="html=1;align=left;spacingLeft=4;verticalAlign=middle;strokeColor=none;fillColor=none;fontStyle=1" parent="ENI0PkMuO0fjYYb_z47d-81" vertex="1">
          <mxGeometry width="130" height="20" as="geometry" />
        </mxCell>
        <mxCell id="ENI0PkMuO0fjYYb_z47d-83" value="" style="shape=ellipse;" parent="ENI0PkMuO0fjYYb_z47d-82" vertex="1">
          <mxGeometry x="1" width="20" height="16" relative="1" as="geometry">
            <mxPoint x="-25" y="7" as="offset" />
          </mxGeometry>
        </mxCell>
        <mxCell id="ENI0PkMuO0fjYYb_z47d-84" value="" style="line;strokeWidth=1;fillColor=none;align=left;verticalAlign=middle;spacingTop=-1;spacingLeft=3;spacingRight=3;rotatable=0;labelPosition=right;points=[];portConstraint=eastwest;" parent="ENI0PkMuO0fjYYb_z47d-81" vertex="1">
          <mxGeometry y="20" width="130" height="8" as="geometry" />
        </mxCell>
        <mxCell id="ENI0PkMuO0fjYYb_z47d-85" value="." style="html=1;align=center;spacingLeft=4;verticalAlign=top;strokeColor=none;fillColor=none;" parent="ENI0PkMuO0fjYYb_z47d-81" vertex="1">
          <mxGeometry y="28" width="130" height="25" as="geometry" />
        </mxCell>
        <mxCell id="ENI0PkMuO0fjYYb_z47d-86" value="" style="fontStyle=1;align=center;verticalAlign=top;childLayout=stackLayout;horizontal=1;horizontalStack=0;resizeParent=1;resizeParentMax=0;resizeLast=0;marginBottom=0;strokeColor=#d6b656;strokeWidth=2;fillColor=none;" parent="ENI0PkMuO0fjYYb_z47d-4" vertex="1">
          <mxGeometry x="290" y="90.5" width="130" height="53" as="geometry" />
        </mxCell>
        <mxCell id="ENI0PkMuO0fjYYb_z47d-87" value="Module &lt;br&gt;Mgmt" style="html=1;align=left;spacingLeft=4;verticalAlign=middle;strokeColor=none;fillColor=none;fontStyle=1" parent="ENI0PkMuO0fjYYb_z47d-86" vertex="1">
          <mxGeometry width="130" height="20" as="geometry" />
        </mxCell>
        <mxCell id="ENI0PkMuO0fjYYb_z47d-88" value="" style="shape=ellipse;" parent="ENI0PkMuO0fjYYb_z47d-87" vertex="1">
          <mxGeometry x="1" width="20" height="16" relative="1" as="geometry">
            <mxPoint x="-25" y="7" as="offset" />
          </mxGeometry>
        </mxCell>
        <mxCell id="ENI0PkMuO0fjYYb_z47d-89" value="" style="line;strokeWidth=1;fillColor=none;align=left;verticalAlign=middle;spacingTop=-1;spacingLeft=3;spacingRight=3;rotatable=0;labelPosition=right;points=[];portConstraint=eastwest;" parent="ENI0PkMuO0fjYYb_z47d-86" vertex="1">
          <mxGeometry y="20" width="130" height="8" as="geometry" />
        </mxCell>
        <mxCell id="ENI0PkMuO0fjYYb_z47d-90" value="." style="html=1;align=center;spacingLeft=4;verticalAlign=top;strokeColor=none;fillColor=none;" parent="ENI0PkMuO0fjYYb_z47d-86" vertex="1">
          <mxGeometry y="28" width="130" height="25" as="geometry" />
        </mxCell>
        <mxCell id="fS7bBoa0igXSXqmXGfwF-0" value="" style="fontStyle=1;align=center;verticalAlign=top;childLayout=stackLayout;horizontal=1;horizontalStack=0;resizeParent=1;resizeParentMax=0;resizeLast=0;marginBottom=0;strokeColor=#d6b656;strokeWidth=2;fillColor=none;" parent="ENI0PkMuO0fjYYb_z47d-4" vertex="1">
          <mxGeometry x="10" y="210" width="130" height="53" as="geometry" />
        </mxCell>
        <mxCell id="fS7bBoa0igXSXqmXGfwF-1" value="Metrics / Alerting&amp;nbsp;" style="html=1;align=left;spacingLeft=4;verticalAlign=middle;strokeColor=none;fillColor=none;fontStyle=1" parent="fS7bBoa0igXSXqmXGfwF-0" vertex="1">
          <mxGeometry width="130" height="20" as="geometry" />
        </mxCell>
        <mxCell id="fS7bBoa0igXSXqmXGfwF-2" value="" style="shape=ellipse;" parent="fS7bBoa0igXSXqmXGfwF-1" vertex="1">
          <mxGeometry x="1" width="20" height="16" relative="1" as="geometry">
            <mxPoint x="-25" y="7" as="offset" />
          </mxGeometry>
        </mxCell>
        <mxCell id="fS7bBoa0igXSXqmXGfwF-3" value="" style="line;strokeWidth=1;fillColor=none;align=left;verticalAlign=middle;spacingTop=-1;spacingLeft=3;spacingRight=3;rotatable=0;labelPosition=right;points=[];portConstraint=eastwest;" parent="fS7bBoa0igXSXqmXGfwF-0" vertex="1">
          <mxGeometry y="20" width="130" height="8" as="geometry" />
        </mxCell>
        <mxCell id="fS7bBoa0igXSXqmXGfwF-4" value="." style="html=1;align=center;spacingLeft=4;verticalAlign=top;strokeColor=none;fillColor=none;" parent="fS7bBoa0igXSXqmXGfwF-0" vertex="1">
          <mxGeometry y="28" width="130" height="25" as="geometry" />
        </mxCell>
        <mxCell id="T-8StQCgKb5fA5dPcUFL-0" value="Title" parent="ENI0PkMuO0fjYYb_z47d-0" visible="0" />
        <mxCell id="ENI0PkMuO0fjYYb_z47d-2" value="&lt;font style=&quot;font-size: 12px&quot;&gt;Diagram: Base System Logical Module - Functionality Groups - Deployment Specialists&lt;/font&gt;" style="text;strokeColor=none;fillColor=none;html=1;fontSize=12;fontStyle=2;verticalAlign=middle;align=left;shadow=0;glass=0;comic=0;opacity=30;fontColor=#808080;strokeWidth=1;" parent="T-8StQCgKb5fA5dPcUFL-0" vertex="1">
          <mxGeometry x="120" y="500" width="520" height="20" as="geometry" />
        </mxCell>
        <mxCell id="T-8StQCgKb5fA5dPcUFL-1" value="Information" parent="ENI0PkMuO0fjYYb_z47d-0" visible="0" />
      </root>
    </mxGraphModel>
  </diagram>
</mxfile>
